# xmcd
#
# Track frame offsets:
#	183
#	20715
#	40960
#	66420
#	86990
#	110360
#	129308
#	144240
#	168755
#	194793
#	216638
#	234070
#	248333
#
# Disc length: 3805 seconds
#
# Revision: 3867412
# Processed by: cddbd v1.5.2PL0 Copyright (c) Steve Scherf et al.
# Submitted via: EZCDAudioConverter 7.0.0.1
#
DISCID=b70edb0d
DTITLE=Various Artist - It's Blues
DYEAR=1990
DGENRE=Blues
TTITLE0=Gary Moore - King Of The Blues
TTITLE1=Albert Collins - Cash Talkin' (The Workingman's Blues)
TTITLE2=John Lee Hooker With Carlos Santana and The Santana Band - The Healer
TTITLE3=Texas - Everyday Now
TTITLE4=Brendan Croker and The 5 O'Clock Shadows - Railroad Blues (Live At Leeds
TTITLE4=)
TTITLE5=Bonnie Taylor - Turtle Blues
TTITLE6=The Blues Band - Itchy Feet
TTITLE7=Colin James - Why'd You Lie
TTITLE8=Joe Cocker - Inner City Blues
TTITLE9=Bonnie Raitt - I Will Not Be Denied
TTITLE10=Lenny Kravitz - Mr. Cab Driver
TTITLE11=Ray Charles - Let's Call The Whole Thing Off
TTITLE12=Eric Clapton - Same Old Blues
EXTD=
EXTT0=
EXTT1=
EXTT2=
EXTT3=
EXTT4=
EXTT5=
EXTT6=
EXTT7=
EXTT8=
EXTT9=
EXTT10=
EXTT11=
EXTT12=
PLAYORDER=
